# xmcd
#
# Track frame offsets: 
#        150
#        20695
#        37531
#        54603
#        67458
#        82759
#        102948
#        120505
#        135999
#        151097
#
# Disc length: 2205 seconds
#
# Revision: 0
# Processed by: cddbd v1.5.2PL0 Copyright (c) Steve Scherf et al.
# Submitted via: ExactAudioCopyFreeDBPlugin 1.0
#
DISCID=73089b0a
DTITLE=Dean Dillon - DYLYN
DYEAR=2011
DGENRE=Country
TTITLE0=A Lot Of Things Different
TTITLE1=C'est La Vie
TTITLE2=Everything But Quits
TTITLE3=Get In, Sit Down, Hold On, Shut Up
TTITLE4=She Let Herself Go
TTITLE5=I Love What I Had
TTITLE6=If He Could Do That
TTITLE7=I'm Just Me
TTITLE8=No Big I's
TTITLE9=You Fit Me
EXTD=
EXTT0=
EXTT1=
EXTT2=
EXTT3=
EXTT4=
EXTT5=
EXTT6=
EXTT7=
EXTT8=
EXTT9=
PLAYORDER=
